<svg fill="none" height="59" viewBox="0 0 60 59" width="60" xmlns="http://www.w3.org/2000/svg" xmlns:xlink="http://www.w3.org/1999/xlink"><linearGradient id="a" gradientUnits="userSpaceOnUse" x1="20.2703" x2="31.0285" y1="19.257" y2="53.2143"><stop offset="0" stop-color="#6573ff"/><stop offset="1" stop-color="#29ddcc"/></linearGradient><path d="m45.3323 32.6368c.1008-.0446.2129-.0551.32-.03 1.5177.359 4.41 1.1364 9.7549 2.8093.1245.0425.254.0677.3851.0749.1212.0044.2414-.0239.3487-.082.1072-.058.1977-.1438.2625-.2488.0647-.105.1015-.2255.1066-.3496.0051-.124-.0217-.2473-.0777-.3575-.0712-.1511-.1635-.2922-.2492-.4359-1.991-3.3553-4.259-6.5094-6.6371-9.5826-2.651-3.4248-5.4247-6.7423-8.3777-9.8971-1.844-1.9712-6.0649-6.53709-7.1072-7.46768l-.0006-.00055c-.0552-.05272-3.9765-3.79506-6.3524-4.9932-3.8028-1.917199-7.8028-2.530621-11.9781-1.739718-4.3309.820598-8.02299 2.877478-10.92389 6.279978-3.67229 4.30747-5.242074 9.34777-4.702769 15.04137.307892 3.2459 1.402329 6.2165 3.182429 8.9226.81291 1.2349 1.759 2.3315 2.81388 3.3782 1.32782 1.3301 15.11505 11.7461 20.84305 15.8113 2.5541 2.0171 5.0607 4.1003 7.5819 6.1646.5525.4521 1.0753.94 1.6027 1.4246.3204.2922.6817.3711.9705.2024s.3811-.4339.3026-.8813c-.0435-.243-.0817-.4873-.1318-.7282-.6455-3.0927-1.7498-6.0208-3.0579-8.874-.06-.1316-.118-.2618-.1839-.3928-.0465-.0977-.0623-.2078-.0453-.3152.017-.1073.0659-.2067.1402-.2844.0742-.0778.1701-.1302.2746-.1501.1044-.0198.2123-.0062.3089.0391 4.2057 1.9672 8.2959 4.1658 12.3289 6.4737 3.609 2.0657 7.1837 4.1941 10.7729 6.2955.6171.3631 1.2256.3428 1.7142-.0763.4885-.419.621-1.0068.3144-1.7147-.7727-1.7876-1.5018-3.5962-2.3695-5.3312-3.1962-6.3906-7.216-12.209-11.837-17.6003-.1569-.1828-.3151-.3637-.4747-.5445-.0737-.0834-.1196-.1886-.1309-.3004-.0113-.1119.0125-.2245.068-.3215s.1398-.1734.2407-.218z" fill="url(#a)"/><path clip-rule="evenodd" d="m6.23417 19.3586c.19775-6.9195 5.81713-12.63218 12.91173-12.61569 7.0546-.04259 13.1245 5.84179 12.9023 13.44949-.0593 2.0857-.6132 4.069-1.5572 5.8197l5.8445 5.0666c1.1444.9921 1.2767 2.7315.2954 3.8852-.9812 1.1536-2.7044 1.2846-3.8488.2926l-5.8496-5.071c-2.1614 1.6507-4.872 2.6386-7.864 2.6295-7.0369-.022-13.05044-5.8624-12.83433-13.4564z" fill="#202c46" fill-rule="evenodd"/><ellipse cx="19.0306" cy="19.6662" fill="#fff" rx="7.01299" ry="7.08"/></svg>