<svg fill="none" width="92" height="98" xmlns="http://www.w3.org/2000/svg"><path d="M.953 48.095c0 18.955 15.63 29.083 36.798 29.083h3.202V97c22.198-6.39 40-27.404 40-48.905 0-19.768-16.228-33.091-40-33.091s-40 13.323-40 33.09z" fill="#fff238"/><path d="M60.16 36.336c-5.498 0-9.426 3.958-9.426 9.455.102 1.916.482 3.63 2.103 7.967l2.965 7.942 4.13-1.337-2.104-5.748c.811.378 1.9.58 2.863.58 4.84 0 8.893-4.06 8.893-9.405s-4.003-9.455-9.425-9.455zm-.051 14.422c-2.762 0-4.814-2.043-4.814-4.917s2.052-4.941 4.813-4.941c2.762 0 4.89 2.092 4.89 4.941 0 2.85-2.103 4.917-4.89 4.917zM26.97 37.47l-4.56 1.488.582 11.95c-1.647.706-2.356-.05-3.395-1.638l-5.118-7.892-4.662 1.538 6.005 9.228c1.647 2.42 4.434 3.706 7.398 2.572.177 2.269-.81 3.555-2.635 3.555-1.14 0-2.381-.605-2.964-1.941l-3.978 1.336c2.078 4.236 5.22 4.665 6.891 4.665 3.648 0 7.423-2.673 7.145-8.422l-.71-16.438zm12.287 13.44c-1.545 0-3.066-.63-3.876-2.042l13.402-4.438c-.633-4.866-4.357-8.093-9.374-8.093-5.472 0-9.45 3.958-9.45 9.455 0 5.496 3.978 9.404 9.45 9.404 5.473 0 9.374-3.858 9.501-9.152l-4.814 1.614c-.456 2.092-2.736 3.252-4.839 3.252zm.279-10.489c1.47 0 2.964.58 3.826 2.093l-8.893 2.874c0-2.925 2.204-4.967 5.067-4.967z" fill="#000"/><g fill="#ff4d9f"><path d="M58.532 17.515c1.475 3.148.665 9.485-3.21 11.238-1.63.733-2.976.166-3.786-1.562-1.7-3.627-.645-12.696 1.791-17.17l.861.535c-1.222 2.251-2.149 6.187-2.407 9.743.618-2.087 1.754-3.572 3.22-4.253 1.485-.69 2.775-.143 3.53 1.47zm-.902.582c-.522-1.113-1.435-1.507-2.4-1.06-1.58.735-3.642 3.702-3.362 7.405.12.856.3 1.59.57 2.167.576 1.228 1.517 1.633 2.597 1.131 3.144-1.46 3.783-7.11 2.595-9.643zm15.594-9.322c-.057 5.59-2.92 11.454-6.798 13.254-1.929.896-3.492.267-4.428-1.73-1.557-3.32-.437-9.147 2.533-10.526 1.197-.555 2.357-.183 2.897.969 1.188 2.533-.668 7.392-3.808 10.112.611.652 1.371.72 2.374.254 3.453-1.603 6.368-7.258 6.46-12.42zM63.008 19.9l.063.135c2.675-2.411 4.376-6.8 3.413-8.854-.288-.614-.845-.8-1.52-.486-2.527 1.173-3.279 6.383-1.956 9.205z"/><path d="M79.209 16.631l-.044.909c-2.072-.113-3.85-1.601-5.156-4.385-.567-1.209-.997-2.528-1.377-3.988l-2.003 1.187-.463-.837 2.275-1.36c-.606-2.594-.863-5.396-.954-7.995l.916-.052c.123 2.818.397 5.356.832 7.538l5.305-3.164.462.836-5.537 3.32c.395 1.592.87 3.008 1.392 4.121 1.143 2.438 2.603 3.747 4.352 3.87zm4.42-15.422c1.504-.698 2.753-.74 3.88-.19l4.016 9.917-.926.43-2.964-7.272c-.507 3.928-2.301 7.566-4.182 8.463-1.148.557-2.217-.069-2.832-1.583-1.483-3.612-.078-8.332 3.008-9.765zm-.416 10.385c1.968-.914 3.825-6.872 3.71-9.67-.855-.421-1.973-.253-2.938.195-2.527 1.173-3.678 5.33-2.44 8.472.384.967.993 1.316 1.668 1.002z"/></g></svg>